<svg width="20" height="20" viewBox="0 0 20 20" fill="none" xmlns="http://www.w3.org/2000/svg">
<path fill-rule="evenodd" clip-rule="evenodd" d="M0 1.66665C0 1.20641 0.373096 0.833313 0.833333 0.833313H3.75C4.1268 0.833313 4.45672 1.08616 4.55468 1.45L5.26365 4.08331H18.3333C18.589 4.08331 18.8305 4.20065 18.9885 4.40161C19.1464 4.60258 19.2035 4.86494 19.1431 5.11335L17.6103 11.4234C17.338 12.5442 16.3344 13.3333 15.181 13.3333H7.68812C6.52218 13.3333 5.51106 12.5274 5.25107 11.3908L3.81619 5.11795L3.11135 2.49998H0.833333C0.373096 2.49998 0 2.12688 0 1.66665ZM5.67048 5.74998L6.87577 11.0191C6.96243 11.398 7.29947 11.6666 7.68812 11.6666H15.181C15.5654 11.6666 15.9 11.4036 15.9907 11.03L17.2733 5.74998H5.67048Z" fill="#1A1A1A"/>
<path d="M15.181 12.5H7.68812C6.91083 12.5 6.23674 11.9627 6.06342 11.205L4.625 4.91669H18.3333L16.8005 11.2268C16.619 11.974 15.9499 12.5 15.181 12.5Z" fill="#1A1A1A"/>
<path d="M8.33331 17.9167C8.33331 18.607 7.77367 19.1667 7.08331 19.1667C6.39296 19.1667 5.83331 18.607 5.83331 17.9167C5.83331 17.2263 6.39296 16.6667 7.08331 16.6667C7.77367 16.6667 8.33331 17.2263 8.33331 17.9167Z" fill="#1A1A1A"/>
<path d="M16.6667 17.9167C16.6667 18.607 16.107 19.1667 15.4167 19.1667C14.7263 19.1667 14.1667 18.607 14.1667 17.9167C14.1667 17.2263 14.7263 16.6667 15.4167 16.6667C16.107 16.6667 16.6667 17.2263 16.6667 17.9167Z" fill="#1A1A1A"/>
<path fill-rule="evenodd" clip-rule="evenodd" d="M7.12892 11.8066C7.51186 12.0619 7.61534 12.5793 7.36005 12.9622L6.5571 14.1667L16.6667 14.1667C17.1269 14.1667 17.5 14.5397 17.5 15C17.5 15.4602 17.1269 15.8333 16.6667 15.8333H6.5571C5.22595 15.8333 4.43196 14.3497 5.17035 13.2422L5.9733 12.0377C6.22859 11.6548 6.74598 11.5513 7.12892 11.8066Z" fill="#1A1A1A"/>
</svg>
