<svg width="25" height="25" viewBox="0 0 25 25" fill="none" xmlns="http://www.w3.org/2000/svg">
<path fill-rule="evenodd" clip-rule="evenodd" d="M17.2496 14.4159L19.7896 14.7059C20.7996 14.8259 21.5596 15.6759 21.5496 16.6859L21.3653 18.9962C21.3653 20.1262 20.4253 21.0662 19.2953 20.9962C17.4874 20.8838 15.7558 20.4889 14.1444 19.855C13.7868 19.7143 13.4351 19.5618 13.0899 19.3981C9.53755 17.7134 6.66229 14.8329 4.98531 11.2746C4.8214 10.9268 4.66894 10.5725 4.52841 10.2122C3.90503 8.61406 3.51649 6.89796 3.40528 5.10615C3.33528 3.97615 4.27529 3.03615 5.40529 3.03615L7.9071 2.82336C8.9271 2.82336 9.7771 3.58336 9.8971 4.59336L10.1871 7.11336C10.2571 7.72336 10.0471 8.32336 9.6171 8.75336L6.99528 10.8162C8.43528 13.6562 10.7553 15.9662 13.5853 17.4062L15.6096 14.9859C16.0396 14.5559 16.6396 14.3459 17.2496 14.4159ZM17.0309 16.4039L19.5429 16.6907L19.3653 18.9165V18.9962C19.3653 18.996 19.3653 18.9963 19.3653 18.9962C18.0236 18.908 16.73 18.6437 15.5074 18.2254L17.0309 16.4039ZM8.19824 7.32488L7.91116 4.83024L5.49019 5.03615H5.40529C5.40515 5.03615 5.40542 5.03615 5.40529 5.03615C5.4938 6.3846 5.76012 7.68412 6.18166 8.91148L8.19824 7.32488Z" fill="#1A1A1A"/>
</svg>
