<svg width="240" height="46" viewBox="0 0 240 46" fill="none" xmlns="http://www.w3.org/2000/svg">
<g clip-path="url(#clip0_3325_2153)">
<path d="M47.818 32.13L46.931 29.205H40.3313L39.4443 32.13H35L41.0418 13.5H46.2205L52.2623 32.13H47.818ZM41.5473 25.21H45.7102L43.6311 18.37L41.5473 25.21Z" fill="black"/>
<path d="M73.5874 18.825H77.3927V32.13H73.5874V30.88C72.7004 31.97 71.432 32.5 69.8059 32.5C68.1321 32.5 66.7111 31.835 65.5142 30.475C64.322 29.12 63.7355 27.44 63.7355 25.47C63.7355 23.5 64.3173 21.85 65.5142 20.495C66.7063 19.14 68.1274 18.445 69.8059 18.445C71.432 18.445 72.7004 18.975 73.5874 20.07V18.825ZM70.5689 28.725C71.4558 28.725 72.195 28.43 72.7529 27.845C73.3108 27.26 73.5922 26.46 73.5922 25.475C73.5922 24.49 73.3108 23.69 72.7529 23.105C72.195 22.52 71.4606 22.225 70.5689 22.225C69.6819 22.225 68.9428 22.52 68.3849 23.105C67.8269 23.69 67.5456 24.49 67.5456 25.475C67.5456 26.46 67.8269 27.26 68.3849 27.845C68.9428 28.43 69.6819 28.725 70.5689 28.725Z" fill="black"/>
<path d="M90.4872 19.915C91.4028 20.9 91.8558 22.23 91.8558 23.96V32.13H88.0505V24.545C88.0505 22.975 87.1349 22.125 85.8426 22.125C84.3978 22.125 83.4822 23.055 83.4822 24.865V32.13H79.6769V18.825H83.4822V20.075C84.2452 18.985 85.4612 18.45 87.1111 18.45C88.4558 18.45 89.5955 18.93 90.4872 19.915Z" fill="black"/>
<path d="M100.067 32.5C98.1885 32.5 96.591 31.835 95.294 30.475C94.0017 29.12 93.3389 27.44 93.3389 25.47C93.3389 23.5 93.9969 21.85 95.294 20.495C96.5863 19.14 98.1885 18.445 100.067 18.445C101.946 18.445 103.544 19.135 104.841 20.495C106.133 21.85 106.796 23.5 106.796 25.47C106.796 27.44 106.138 29.115 104.841 30.475C103.548 31.835 101.946 32.5 100.067 32.5ZM100.067 28.615C100.907 28.615 101.589 28.325 102.146 27.735C102.704 27.15 102.986 26.405 102.986 25.475C102.986 24.545 102.704 23.8 102.146 23.215C101.589 22.63 100.902 22.335 100.067 22.335C99.2328 22.335 98.5461 22.625 97.9882 23.215C97.4303 23.8 97.149 24.545 97.149 25.475C97.149 26.405 97.4303 27.15 97.9882 27.735C98.5461 28.325 99.2328 28.615 100.067 28.615Z" fill="black"/>
<path d="M115.785 18.825H120L115.303 32.13H110.987L106.29 18.825H110.506L113.148 27.26L115.785 18.825Z" fill="black"/>
<path d="M58.8381 23.88C60.5882 24.28 62.901 25.235 62.8724 28.14C62.8724 29.575 62.3669 30.67 61.3512 31.415C60.3355 32.13 59.0956 32.5 57.5983 32.5C54.9327 32.5 53.5259 31.575 52.391 29.82L55.2808 27.49C55.8101 28.63 56.2583 29.03 57.4314 29.03C58.347 29.03 58.9669 28.67 58.9669 28.11C58.9669 27.58 57.975 27.26 56.759 26.94C55.009 26.435 52.7248 25.53 52.7248 22.815C52.7248 21.43 53.2064 20.365 54.1459 19.595C55.1091 18.825 56.3013 18.45 57.6985 18.45C59.8062 18.45 61.3369 19.51 62.2334 20.665L59.439 23.095C59.0337 22.325 58.6331 21.87 57.7175 21.84C57.007 21.82 56.6303 22.2 56.6303 22.705C56.6303 23.24 57.6222 23.535 58.8381 23.88Z" fill="black"/>
</g>
<g clip-path="url(#clip1_3325_2153)">
<path d="M28 21.8042L26.3232 16.6697L19.216 16.2793L16.6574 9.5H11.3185L8.75994 16.2793L1.672 16.6697L0 21.8042L5.53158 26.3482L3.68611 33.3129L7.99862 36.5049L13.988 32.5759L19.958 36.4902L24.2705 33.2983L22.4443 26.3482L28 21.8042ZM19.2304 30.9653L14.0024 27.8319L8.76958 30.9653L10.0946 24.9572L5.5364 20.8867L11.5835 20.3059L13.9976 14.6589L16.4116 20.3059L22.4588 20.8867L17.9005 24.9572L19.2304 30.9653Z" fill="#EE2459"/>
</g>
<defs>
<clipPath id="clip0_3325_2153">
<rect width="85" height="19" fill="white" transform="translate(35 13.5)"/>
</clipPath>
<clipPath id="clip1_3325_2153">
<rect width="28" height="27" fill="white" transform="translate(0 9.5)"/>
</clipPath>
</defs>
</svg>
