<svg width="147" height="28" viewBox="0 0 147 28" fill="none" xmlns="http://www.w3.org/2000/svg">
<path d="M39.8213 20.9205L39.149 18.7034H34.1464L33.4741 20.9205H30.1053L34.685 6.79901H38.6104L43.1901 20.9205H39.8213ZM35.0681 15.6752H38.2237L36.6477 10.4905L35.0681 15.6752Z" fill="black"/>
<path d="M59.3545 10.8354H62.239V20.9206H59.3545V19.9731C58.6822 20.7993 57.7207 21.201 56.4882 21.201C55.2194 21.201 54.1423 20.6969 53.235 19.6661C52.3314 18.639 51.8868 17.3655 51.8868 15.8723C51.8868 14.379 52.3278 13.1283 53.235 12.1012C54.1387 11.0741 55.2158 10.5473 56.4882 10.5473C57.7207 10.5473 58.6822 10.9491 59.3545 11.7791V10.8354V10.8354ZM57.0665 18.3396C57.7388 18.3396 58.2991 18.116 58.722 17.6725C59.1449 17.2291 59.3581 16.6227 59.3581 15.8761C59.3581 15.1294 59.1449 14.523 58.722 14.0796C58.2991 13.6362 57.7424 13.4126 57.0665 13.4126C56.3942 13.4126 55.8339 13.6362 55.411 14.0796C54.9881 14.523 54.7748 15.1294 54.7748 15.8761C54.7748 16.6227 54.9881 17.2291 55.411 17.6725C55.8339 18.116 56.3942 18.3396 57.0665 18.3396Z" fill="black"/>
<path d="M72.1646 11.6616C72.8586 12.4082 73.202 13.4164 73.202 14.7277V20.9206H70.3176V15.1711C70.3176 13.9811 69.6236 13.3368 68.644 13.3368C67.5488 13.3368 66.8548 14.0417 66.8548 15.4137V20.9206H63.9703V10.8354H66.8548V11.7829C67.4331 10.9566 68.3548 10.5511 69.6055 10.5511C70.6248 10.5511 71.4887 10.915 72.1646 11.6616Z" fill="black"/>
<path d="M79.4263 21.201C78.0022 21.201 76.7913 20.6969 75.8081 19.6661C74.8286 18.639 74.3261 17.3655 74.3261 15.8723C74.3261 14.379 74.8249 13.1283 75.8081 12.1012C76.7877 11.0741 78.0022 10.5473 79.4263 10.5473C80.8504 10.5473 82.0613 11.0704 83.0445 12.1012C84.0241 13.1283 84.5265 14.379 84.5265 15.8723C84.5265 17.3655 84.0277 18.6352 83.0445 19.6661C82.065 20.6969 80.8504 21.201 79.4263 21.201ZM79.4263 18.2562C80.0625 18.2562 80.5794 18.0364 81.0023 17.5892C81.4252 17.1457 81.6384 16.581 81.6384 15.8761C81.6384 15.1711 81.4252 14.6064 81.0023 14.163C80.5794 13.7196 80.0589 13.496 79.4263 13.496C78.7938 13.496 78.2733 13.7158 77.8503 14.163C77.4274 14.6064 77.2142 15.1711 77.2142 15.8761C77.2142 16.581 77.4274 17.1457 77.8503 17.5892C78.2733 18.0364 78.7938 18.2562 79.4263 18.2562Z" fill="black"/>
<path d="M91.34 10.8354H94.5353L90.9749 20.9205H87.7037L84.1433 10.8354H87.3386L89.3411 17.2291L91.34 10.8354Z" fill="black"/>
<path d="M48.1746 14.6671C49.5012 14.9703 51.2542 15.6941 51.2325 17.8961C51.2325 18.9839 50.8494 19.8139 50.0795 20.3786C49.3096 20.9205 48.3698 21.201 47.2348 21.201C45.2143 21.201 44.148 20.4999 43.2877 19.1696L45.4781 17.4034C45.8793 18.2675 46.2191 18.5707 47.1083 18.5707C47.8023 18.5707 48.2722 18.2979 48.2722 17.8734C48.2722 17.4717 47.5204 17.2291 46.5986 16.9865C45.2721 16.6037 43.5407 15.9178 43.5407 13.8598C43.5407 12.81 43.9058 12.0027 44.6179 11.419C45.348 10.8354 46.2516 10.5511 47.3107 10.5511C48.9084 10.5511 50.0686 11.3546 50.7482 12.2301L48.63 14.072C48.3228 13.4884 48.0192 13.1435 47.3252 13.1207C46.7866 13.1056 46.5011 13.3936 46.5011 13.7764C46.5011 14.1819 47.2529 14.4055 48.1746 14.6671Z" fill="black"/>
<g clip-path="url(#clip0_3388_411)">
<path d="M25 12.4814L23.6226 8.10755L17.7845 7.77495L15.6828 2H11.2974L9.19566 7.77495L3.37343 8.10755L2 12.4814L6.5438 16.3521L5.02788 22.2851L8.5703 25.0042L13.4901 21.6573L18.3941 24.9917L21.9365 22.2726L20.4364 16.3521L25 12.4814ZM17.7964 20.2852L13.502 17.6161L9.20358 20.2852L10.292 15.1672L6.54775 11.6997L11.5151 11.205L13.498 6.39461L15.481 11.205L20.4483 11.6997L16.704 15.1672L17.7964 20.2852Z" fill="#EE2459"/>
</g>
<defs>
<clipPath id="clip0_3388_411">
<rect width="23" height="23" fill="white" transform="translate(2 2)"/>
</clipPath>
</defs>
</svg>
